<svg version="1.1" id="Capa_1" xmlns="http://www.w3.org/2000/svg" xmlns:xlink="http://www.w3.org/1999/xlink" x="0px" y="0px"
	 width="17.3px" height="17.3px" viewBox="0 0 17.3 17.3" enable-background="new 0 0 17.3 17.3" xml:space="preserve">
<g>
	<rect width="17.3" height="17.3"/>

<path class="mail-poly" d="M7.4,8.2c0,0,1.3-0.1,1.3-1.6c0-1.5-1-2.2-2.3-2.2H3.9H3.8H2v8.2h1.8h0.1h2.4c0,0,2.6,0.1,2.6-2.4
	C8.9,10.2,9,8.2,7.4,8.2z M3.9,5.9H6h0.3c0,0,0.6,0,0.6,0.9c0,0.9-0.3,1-0.7,1H3.9V5.9z M6.2,11.2H3.9V9h2.4c0,0,0.9,0,0.9,1.1
	C7.2,11.1,6.5,11.2,6.2,11.2z M12.4,6.5c-3.2,0-3.2,3.2-3.2,3.2s-0.2,3.2,3.2,3.2c0,0,2.8,0.2,2.8-2.2h-1.5c0,0,0,0.9-1.3,0.9
	c0,0-1.5,0.1-1.5-1.4h4.3C15.3,10.1,15.7,6.5,12.4,6.5z M13.7,9H11c0,0,0.2-1.3,1.5-1.3C13.7,7.7,13.7,9,13.7,9z M14,5.9h-3.4v-1H14
	V5.9z"/>
</g>
</svg>
