<svg version="1.1" id="Capa_1" xmlns="http://www.w3.org/2000/svg" xmlns:xlink="http://www.w3.org/1999/xlink" x="0px" y="0px"
	 width="17.3px" height="17.3px" viewBox="0 0 17.3 17.3" enable-background="new 0 0 17.3 17.3" xml:space="preserve">
<g>
	<rect height="17.3" width="17.3" d="M17,0.2V17H0.2V0.2H17 M17.3,0H0v17.3h17.3V0L17.3,0z"/>

<path  class="mail-poly" fill-rule="evenodd" clip-rule="evenodd" d="M8.6,2.7c-3.4,0-6.1,2.7-6.1,6.1c0,2.7,1.8,5,4.2,5.8
	c0.3,0.1,0.4-0.1,0.4-0.3c0-0.1,0-0.5,0-1c-1.7,0.4-2.1-0.8-2.1-0.8c-0.3-0.7-0.7-0.9-0.7-0.9c-0.6-0.4,0-0.4,0-0.4
	c0.6,0,0.9,0.6,0.9,0.6c0.5,0.9,1.4,0.7,1.8,0.5c0.1-0.4,0.2-0.7,0.4-0.8c-1.4-0.2-2.8-0.7-2.8-3c0-0.7,0.2-1.2,0.6-1.6
	C5.3,6.7,5.1,6.1,5.4,5.2c0,0,0.5-0.2,1.7,0.6c0.5-0.1,1-0.2,1.5-0.2c0.5,0,1,0.1,1.5,0.2c1.2-0.8,1.7-0.6,1.7-0.6
	c0.3,0.8,0.1,1.5,0.1,1.6c0.4,0.4,0.6,1,0.6,1.6c0,2.4-1.4,2.9-2.8,3c0.2,0.2,0.4,0.6,0.4,1.1c0,0.8,0,1.5,0,1.7
	c0,0.2,0.1,0.4,0.4,0.3c2.4-0.8,4.2-3.1,4.2-5.8C14.8,5.4,12,2.7,8.6,2.7z"/>
</g>
</svg>
