<svg version="1.1" id="Capa_1" xmlns="http://www.w3.org/2000/svg" xmlns:xlink="http://www.w3.org/1999/xlink" x="0px" y="0px"
	 width="24px" height="24px" viewBox="0 0 24 24" enable-background="new 0 0 24 24" xml:space="preserve">
<g>
	<rect class="svg-linkedIn" width="24" height="24" />
<path class="mail-poly"  d="M7.3,20H3.7V9.3h3.6V20z M5.5,7.8L5.5,7.8c-1.2,0-2-0.8-2-1.9c0-1.1,0.8-1.9,2-1.9c1.2,0,2,0.8,2,1.9
	C7.6,7,6.8,7.8,5.5,7.8z M20.3,20h-3.6v-5.7c0-1.4-0.5-2.4-1.8-2.4c-1,0-1.6,0.7-1.8,1.3c-0.1,0.2-0.1,0.5-0.1,0.9v6H9.3
	c0,0,0-9.7,0-10.7h3.6v1.5c0.5-0.7,1.3-1.8,3.2-1.8c2.4,0,4.1,1.5,4.1,4.8V20z"/>
</g>
</svg>
