<svg version="1.1" id="Capa_1" xmlns="http://www.w3.org/2000/svg" xmlns:xlink="http://www.w3.org/1999/xlink" x="0px" y="0px"
	 width="17.3px" height="17.3px" viewBox="0 0 17.3 17.3" enable-background="new 0 0 17.3 17.3" xml:space="preserve">
<g>
	<rect width="17.3" height="17.3"/>
	<polygon class="mail-poly" points="13.9,5 13.8,5 3.5,5 3.5,5 8.6,9.6 	"/>
	<path class="mail-poly" d="M14.4,5.5l-3.7,3.3l3.6,3.2c0.1-0.1,0.1-0.2,0.1-0.3V5.7C14.5,5.6,14.5,5.5,14.4,5.5z"/>
	<path class="mail-poly"  d="M2.8,5.4c0,0.1-0.1,0.2-0.1,0.3v5.9c0,0.1,0,0.2,0.1,0.3l3.7-3.1L2.8,5.4z"/>
	<polygon class="mail-poly" points="8.6,10.6 7.1,9.2 3.5,12.3 3.5,12.3 13.7,12.3 10.2,9.2 	"/>
</g>
</svg>
