<svg version="1.1" id="Capa_1" xmlns="http://www.w3.org/2000/svg" xmlns:xlink="http://www.w3.org/1999/xlink" x="0px" y="0px"
	 width="24px" height="24px" viewBox="0 0 24 24" enable-background="new 0 0 24 24" xml:space="preserve">
<g>
	<rect class="svg-twitter" width="24" height="24"/>

	<path class="mail-poly" d="M19.4,11.3c1.1-0.1,1.8-0.6,2.1-1.2c-0.4,0.2-1.6,0.5-2.3,0.2c0-0.2-0.1-0.3-0.1-0.4
		c-0.5-1.9-2.2-3.4-4-3.2c0.1-0.1,0.3-0.1,0.4-0.2c0.2-0.1,1.4-0.3,1.2-0.7c-0.2-0.4-1.6,0.3-1.9,0.4c0.4-0.1,0.9-0.4,1-0.8
		c-0.5,0.1-1.1,0.3-1.5,0.7c0.2-0.2,0.3-0.4,0.3-0.6c-1.5,0.9-2.3,2.8-3,4.6c-0.5-0.5-1-0.9-1.4-1.2C9,8.4,7.6,7.7,5.3,6.9
		C5.2,7.6,5.7,8.6,6.9,9.3c-0.3,0-0.8,0-1.2,0.1c0.2,0.9,0.7,1.6,2.1,1.9c-0.7,0-1,0.2-1.3,0.5c0.3,0.6,1,1.3,2.4,1.2
		c-1.5,0.6-0.6,1.8,0.6,1.6c-2,2.1-5.2,1.9-7.1,0.2c4.8,6.6,15.3,3.9,16.8-2.4c1.2,0,1.9-0.4,2.3-0.9C20.9,11.6,19.9,11.5,19.4,11.3
		z"/>
</g>
</svg>
